# xmcd
#
# Track frame offsets:
#	150
#	2638
#	19493
#	33928
#	56890
#	58488
#	76057
#	89640
#	92116
#	105765
#	119795
#	121645
#	145335
#	146604
#	169802
#	171145
#	183727
#	196110
#	198075
#	215722
#	216658
#	232655
#	236194
#	254345
#
# Disc length: 3680 seconds
#
# Revision: 1
# Processed by: cddbd v1.5.2PL0 Copyright (c) Steve Scherf et al.
# Submitted via: audiograbber 1.83.01
#
DISCID=610e5e18
DTITLE=The Crow Quill Night Owls - Wrap Your Troubles in Dreams
DYEAR=2013
DGENRE=Country Blues
TTITLE0=Devin Champlin Meets the Crow Quill Night Owls
TTITLE1=Carbolic Rag
TTITLE2=All Gone Now
TTITLE3=Crying My Blues Away
TTITLE4=Buddy Bob
TTITLE5=Sugar Babe I'm Leaving
TTITLE6=Duck's Yas Yas Yas
TTITLE7=Scottie and Regina part 1
TTITLE8=On the Road Again
TTITLE9=I Used to Call Her Baby
TTITLE10=Who Dat
TTITLE11=I Grabbed that Chicken from the Pan
TTITLE12=You Dog
TTITLE13=New Lina Blues
TTITLE14=Scottie and Regina part 2
TTITLE15=Tappin' that Thing
TTITLE16=Cave Man Blues
TTITLE17=Fuzzy Valentine
TTITLE18=Cornfed Indiana Gal
TTITLE19=The Psychology of Disrobing
TTITLE20=Midnight Mama
TTITLE21=Creamo
TTITLE22=You May Leave But This Will Bring You Back
TTITLE23=Wrap Your Troubles in Dreams
EXTD=
EXTT0=
EXTT1=
EXTT2=
EXTT3=
EXTT4=
EXTT5=
EXTT6=
EXTT7=
EXTT8=
EXTT9=
EXTT10=
EXTT11=
EXTT12=
EXTT13=
EXTT14=
EXTT15=
EXTT16=
EXTT17=
EXTT18=
EXTT19=
EXTT20=
EXTT21=
EXTT22=
EXTT23=
PLAYORDER=
